<?xml version="1.0" encoding="UTF-8"?>
<svg width="112px" height="112px" viewBox="0 0 112 112" version="1.1" xmlns="http://www.w3.org/2000/svg" xmlns:xlink="http://www.w3.org/1999/xlink">
    <title>ICON-Strokes/Service-112px/white</title>
    <g id="ICON-Strokes/Service-112px/white" stroke="none" stroke-width="1" fill="none" fill-rule="evenodd">
        <path d="M91.3318995,80.549499 L91.4833592,80.7093814 L91.623491,80.8742841 C91.7344392,81.0121996 91.8348961,81.1557643 91.9248618,81.30391 C91.9935639,81.4170051 92.05639,81.5332727 92.1130493,81.6517521 C92.1848883,81.8019281 92.2469649,81.9561022 92.2990769,82.1128622 L92.3425962,82.2522507 C92.3634256,82.3234956 92.3823351,82.3956417 92.3991991,82.468167 C92.5069852,82.9317573 92.5312033,83.4107467 92.4718736,83.8812108 L92.45483,84.0016396 L92.429364,84.1464589 L92.3700126,84.4051226 L92.3339998,84.5326082 L92.2715278,84.7230103 L92.2432776,84.7998154 C92.156783,85.0277075 92.0487238,85.2492854 91.9190999,85.4614005 C91.8290464,85.6087124 91.728983,85.7509684 91.6185909,85.8876472 C91.5709698,85.9466154 91.521255,86.0047348 91.469605,86.0617247 L91.3318995,86.2063533 L82.8466181,94.6916346 C82.1176395,95.4206133 81.1772938,95.809402 80.2228588,95.8580024 L80.0181937,95.8632102 C78.9945072,95.863213 77.9708233,95.4726941 77.1897856,94.6916564 L54.6383625,72.1400977 L31.6580637,95.1218753 C30.1480365,96.6319026 27.7310722,96.6822368 26.1605825,95.2728781 L26.0012095,95.1218753 L17.5159281,86.636594 C15.9538309,85.0744968 15.9538309,82.5418369 17.51585,80.9798178 L40.4953625,57.9980977 L35.0753177,52.5779168 L24.9500019,54.1821912 C24.8679724,54.1951834 24.7859891,54.2055733 24.7041493,54.2134105 L24.5196831,54.2267856 L24.2537245,54.2310417 L24.0197218,54.2201051 L23.8176341,54.19951 L23.5611698,54.1582261 L23.3664173,54.1152637 L23.2549316,54.0860223 L23.0656575,54.0283735 L22.8334357,53.9432754 L22.5970684,53.8393208 L22.4235697,53.75101 L22.2345595,53.6422106 L22.0734223,53.5381429 L21.9091295,53.4201971 L21.7137688,53.2624411 L21.5060975,53.07047 L21.3099714,52.8613221 L21.2145725,52.7477657 C21.1502072,52.6681803 21.0887865,52.585997 21.0303601,52.5011335 C20.9715624,52.4157328 20.9157764,52.3275822 20.8632265,52.2368179 L20.7602379,52.0473998 L11.8133636,34.4881703 C11.0266412,32.9441406 11.3236137,31.0691301 12.5489626,29.8437812 L13.3050069,29.0877368 C14.6584264,27.7343174 16.7809649,27.5293437 18.3683586,28.5987686 L27.2087548,34.5544721 L31.1940086,30.5692183 L25.2385229,21.7290318 C24.685131,20.9077447 24.4729,19.9431718 24.5843908,19.0159723 C24.663712,18.3557475 24.907416,17.7140808 25.3091474,17.1567149 C25.3974208,17.0346729 25.4886303,16.9218496 25.5867019,16.8133266 L25.7273191,16.6654247 L26.484046,15.9086977 C27.2498891,15.1428546 28.2695062,14.7396586 29.3034828,14.7370292 L29.5103986,14.7418554 C30.0623064,14.7690277 30.6137586,14.9108579 31.1284351,15.1730987 L48.6876647,24.1199731 C50.2316944,24.9066955 51.0935421,26.5981669 50.8224276,28.3099165 L49.2173625,38.4360977 L56.7593625,45.9770977 L71.1433625,31.5940977 L71.9099966,25.4512969 L88.3149297,14.1386556 L98.4991479,24.3228737 L87.1866429,40.727609 L81.0423625,41.4940977 L66.6593625,55.8770977 L91.3318995,80.549499 Z M44.7382811,62.2396556 L23.1723625,83.8080977 L28.8293625,89.4650977 L50.3952811,67.8976556 L44.7382811,62.2396556 Z M36.3273122,46.4826042 L36.6011086,46.5309495 C36.7235714,46.5569792 36.845013,46.5888336 36.9646801,46.6263066 L37.1262571,46.6807087 C37.3800418,46.7721896 37.6250865,46.8895883 37.8569839,47.0314596 L37.9725914,47.1049403 L38.0562581,47.1616844 L38.2136019,47.2771409 L38.4341465,47.4604049 L38.5977737,47.6150853 L80.0173625,89.0340977 L85.6743625,83.3780977 L44.2546941,41.9582972 C43.9449235,41.6485319 43.6922956,41.2944346 43.5019914,40.9119522 L43.4159551,40.727399 C43.2254972,40.2901294 43.113974,39.8205585 43.0886219,39.3409627 C43.0739722,39.0638631 43.0880928,38.78339 43.1323819,38.503869 L44.6679283,28.8064011 L33.3598767,23.044895 L37.0918129,28.5830704 L37.2054015,28.7615836 L37.3163403,28.9588666 C37.3621299,29.0459625 37.4044469,29.1342519 37.4433093,29.2235472 L37.5061055,29.3764332 L37.5882345,29.6101775 L37.6725267,29.9188567 L37.7314472,30.230945 L37.7450014,30.3313864 L37.762424,30.5058208 L37.7736736,30.7354607 L37.7723695,30.9473481 L37.7600802,31.1565601 L37.7384494,31.3534087 L37.7160404,31.4992188 L37.6640773,31.7516624 L37.5813431,32.0466822 L37.5499349,32.1401934 C37.51357,32.2441593 37.4729934,32.3464745 37.4281008,32.4472288 L37.3454127,32.6213552 L37.2628784,32.7762435 L37.1352105,32.9879444 C37.0701356,33.0886005 37.0006544,33.1862348 36.9263793,33.2811523 C36.8270807,33.4080479 36.7192138,33.5300876 36.6028586,33.6464428 L30.20231,40.043126 L30.0701573,40.1620153 L29.9345313,40.2756019 C29.2834736,40.7889747 28.50818,41.0742823 27.7182819,41.1257206 L27.5025754,41.1339465 C26.710928,41.1428152 25.9146427,40.9172872 25.2233507,40.4515585 L19.6843625,36.7200977 L25.4459376,48.0283918 L35.1435962,46.4927887 C35.380719,46.4552299 35.6185262,46.4393813 35.8543929,46.4443902 C36.0150187,46.4479121 36.1719958,46.4607153 36.3273122,46.4826042 Z M87.6063625,21.9150977 L77.5293625,28.8640977 L76.83142,34.470411 L76.0053625,35.2170977 L61.0012811,50.2196556 L62.4162811,51.6336556 L77.4503625,36.6000977 L78.1930413,35.8041209 L83.7743625,35.1070977 L90.7213625,25.0300977 L87.6063625,21.9150977 Z" id="Shape" fill="#FFFFFF" fill-rule="nonzero"></path>
    </g>
</svg>