<?xml version="1.0" encoding="UTF-8"?>
<svg width="80px" height="80px" viewBox="0 0 80 80" version="1.1" xmlns="http://www.w3.org/2000/svg" xmlns:xlink="http://www.w3.org/1999/xlink">
    <title>um</title>
    <defs>
        <polygon id="path-1" points="0 0 33 0 33 33 0 33"></polygon>
    </defs>
    <g id="um" stroke="none" stroke-width="1" fill="none" fill-rule="evenodd">
        <g id="Group-6" transform="translate(10.000000, 21.000000)">
            <g id="Group-3" transform="translate(27.000000, 0.000000)">
                <mask id="mask-2" fill="white">
                    <use xlink:href="#path-1"></use>
                </mask>
                <g id="Clip-2"></g>
                <path d="M10.5002779,-0.000136629554 C12.0626171,-0.000136629554 13.4374756,0.376960945 14.6248533,1.0683065 C15.8135897,1.82386794 16.8134868,2.82809518 17.500916,4.08508709 C18.3133324,2.76524558 19.3132295,1.75965205 20.5631008,1.0683065 C21.7504786,0.376960945 23.1253371,-0.000136629554 24.6251827,-0.000136629554 C27.3762582,-0.000136629554 29.4385459,0.816908115 30.875898,2.4509976 C32.31325,4.14930298 33.0006793,6.47473802 33.0006793,9.49151862 L33.0006793,33 L28.6886231,33 L28.6886231,9.6800674 C28.6886231,7.79457953 28.2511682,6.34903883 27.3762582,5.3434453 C26.4374961,4.33648547 25.2501184,3.83368871 23.7502727,3.83368871 C22.1879336,3.83368871 21.0005558,4.33648547 20.0631523,5.3434453 C19.1257487,6.41052213 18.6258002,7.79457953 18.6258002,9.61721781 L18.6258002,33 L14.3748791,33 L14.3748791,9.6800674 C14.3748791,7.85742913 13.9387827,6.41052213 13.0000206,5.3434453 C12.0626171,4.33648547 10.8752393,3.83368871 9.3129001,3.83368871 C7.81305449,3.83368871 6.6256767,4.33648547 5.68827319,5.3434453 C4.75086968,6.41052213 4.31341471,7.85742913 4.31341471,9.6800674 L4.31341471,33 L0,33 L0,0.502660136 L4.18842757,0.502660136 L4.18842757,3.45659113 C4.81336325,2.38814801 5.68827319,1.57110326 6.81315741,0.942607306 C7.87554805,0.314111349 9.1254194,-0.000136629554 10.5002779,-0.000136629554 Z" id="Fill-1" fill="#7F7F7F" mask="url(#mask-2)"></path>
            </g>
            <path d="M23.9417139,29.2842536 C22.2819475,29.2842536 21.0690413,28.8510568 20.2391581,28.0465485 C19.4092749,27.2420401 19.0262519,26.0662202 19.0262519,24.3953182 L19.0262519,4.27991868 L19.0262519,0.5 L14.6839366,0.5 L14.6839366,20.3095459 C14.6839366,22.7244163 14.5562623,24.5796287 14.3009136,25.8805644 C13.9817278,27.1801549 13.4710304,28.170319 12.7688216,28.7891716 C12.0666127,29.4080242 10.9813808,29.7174504 9.57696311,29.7174504 C7.47033653,29.7174504 6.12975598,28.9748273 5.42615936,27.5514664 C4.7239505,26.1281055 4.34092749,23.7132351 4.34092749,20.3095459 L4.34092749,2.64534067 L4.34092749,0.5 L0,0.5 L0,2.64534067 L0,23.1562678 L0,46 L4.34092749,46 L4.34092749,32.4215672 C5.71065109,33.1319023 7.42592807,33.4924512 9.51312594,33.4924512 C12.7688216,33.4924512 15.1307968,32.6260576 16.726726,30.8932704 C16.7641957,30.8542557 16.7947265,30.8071691 16.8294206,30.7654638 C18.3365329,32.2480194 20.6305077,32.9973691 23.7502024,32.9973691 L24,32.9973691 L24,29.2842536 L23.9417139,29.2842536 Z" id="Fill-4" fill="#7F7F7F"></path>
        </g>
    </g>
</svg>